# xmcd
#
# Track frame offsets:
#	150
#	11718
#	24279
#	34716
#	47202
#	57547
#	71180
#	82357
#	94091
#	105067
#
# Disc length: 1526 seconds
# Revision: 1
# Processed by: cddbd v1.5.2PL0 Copyright (c) Steve Scherf et al.
# Submitted via: dBpowerAMP V12.0
#
DISCID=8005f40a
DTITLE=Patsy Cline - Walkin' After Midnight
DYEAR=2001
DGENRE=Country
TTITLE0=Walkin' After Midnight
TTITLE1=Just A Closer Walk With Thee
TTITLE2=Lovesick Blues
TTITLE3=Poor Man's Roses (Or A Rich Man's Gold)
TTITLE4=Pick Me Up On Your Way Down
TTITLE5=A Church A Courtroom And Then Goodbye
TTITLE6=Hungry For Love
TTITLE7=Today, Tomorrow And Forever
TTITLE8=Stop The World (And Let Me Off)
TTITLE9=Come On In (And Make Yourself At Home)
EXTD=
EXTT0=
EXTT1=
EXTT2=
EXTT3=
EXTT4=
EXTT5=
EXTT6=
EXTT7=
EXTT8=
EXTT9=
PLAYORDER=
